<svg width="26" height="26" viewBox="0 0 26 26" fill="none" xmlns="http://www.w3.org/2000/svg">
<circle cx="13" cy="13" r="11.5" fill="url(#paint0_linear_32_119)" stroke="url(#paint1_linear_32_119)" stroke-width="2"/>
<g filter="url(#filter0_d_32_119)">
<path d="M15.4572 10.5232L15.4597 10.5918C15.4597 11.6051 14.9593 12.4971 14.2006 13.0165C13.7546 12.7047 13.5115 12.6446 12.9343 12.6446C12.357 12.6446 11.8372 12.8202 11.3953 13.1236C10.6366 13.643 10.1363 14.535 10.1363 15.5483V17.1354C10.1363 18.0348 9.43501 18.7639 8.56866 18.7639C8.13497 18.7639 7.74332 18.5819 7.45932 18.2871C7.17532 17.9922 7 17.5846 7 17.1354V15.9752C7 14.949 7.24094 13.9815 7.66847 13.1299C8.22314 12.0219 9.0936 11.1107 10.1558 10.5232C10.9862 10.0644 11.9346 9.80469 12.9414 9.80469C13.9482 9.80469 14.6216 9.94993 15.4572 10.4161V10.5232Z" fill="url(#paint2_linear_32_119)"/>
<path d="M18.8873 15.9769V17.1371C18.8873 18.0366 18.186 18.7657 17.3186 18.7657H17.2981C16.4318 18.7657 15.7305 18.0366 15.7305 17.1371V16.1379C16.7926 15.5514 17.6843 14.8435 18.239 13.7344C18.6665 14.5859 18.8862 14.9508 18.8862 15.9769H18.8873Z" fill="url(#paint3_linear_32_119)"/>
<path d="M10.1607 10.1696C9.09853 10.7561 8.18118 11.4883 7.64616 12.5819C7.2176 11.7293 7.00391 11.3138 7.00391 10.2877V9.12857C7.00391 8.22913 7.70519 7.5 8.57257 7.5H8.59205C9.4584 7.5 10.1607 8.22913 10.1607 9.12857V10.1696Z" fill="url(#paint4_linear_32_119)"/>
</g>
<defs>
<filter id="filter0_d_32_119" x="7" y="7.5" width="11.8873" height="11.2657" filterUnits="userSpaceOnUse" color-interpolation-filters="sRGB">
<feFlood flood-opacity="0" result="BackgroundImageFix"/>
<feColorMatrix in="SourceAlpha" type="matrix" values="0 0 0 0 0 0 0 0 0 0 0 0 0 0 0 0 0 0 127 0" result="hardAlpha"/>
<feOffset/>
<feComposite in2="hardAlpha" operator="out"/>
<feColorMatrix type="matrix" values="0 0 0 0 0.48125 0 0 0 0 0.33352 0 0 0 0 0.0360076 0 0 0 1 0"/>
<feBlend mode="normal" in2="BackgroundImageFix" result="effect1_dropShadow_32_119"/>
<feBlend mode="normal" in="SourceGraphic" in2="effect1_dropShadow_32_119" result="shape"/>
</filter>
<linearGradient id="paint0_linear_32_119" x1="27.4107" y1="5.18815" x2="13.5893" y2="22.3118" gradientUnits="userSpaceOnUse">
<stop stop-color="#F5B937"/>
<stop offset="1" stop-color="#FFE997"/>
</linearGradient>
<linearGradient id="paint1_linear_32_119" x1="13" y1="27" x2="13" y2="6" gradientUnits="userSpaceOnUse">
<stop stop-color="#F5B937"/>
<stop offset="1" stop-color="#FFE997"/>
</linearGradient>
<linearGradient id="paint2_linear_32_119" x1="10.5582" y1="21.3354" x2="20.3519" y2="2.28231" gradientUnits="userSpaceOnUse">
<stop stop-color="#FFC444"/>
<stop offset="1" stop-color="#A66A02"/>
</linearGradient>
<linearGradient id="paint3_linear_32_119" x1="17.0583" y1="20.2097" x2="23.6047" y2="11.747" gradientUnits="userSpaceOnUse">
<stop stop-color="#FFC444"/>
<stop offset="1" stop-color="#A66A02"/>
</linearGradient>
<linearGradient id="paint4_linear_32_119" x1="8.33169" y1="14.0405" x2="14.9604" y2="5.55689" gradientUnits="userSpaceOnUse">
<stop stop-color="#FFC444"/>
<stop offset="1" stop-color="#A66A02"/>
</linearGradient>
</defs>
</svg>
