<svg width="22" height="22" viewBox="0 0 22 22" fill="none" xmlns="http://www.w3.org/2000/svg">
<path d="M18.4467 3.48224C14.309 -0.655439 7.61992 -0.655439 3.48224 3.48224C-0.655439 7.61992 -0.655439 14.309 3.48224 18.4467C7.61992 22.5844 14.309 22.5844 18.4467 18.4467C22.5844 14.309 22.5844 7.61992 18.4467 3.48224ZM10.9645 17.3992C10.3809 17.3992 9.90948 16.9278 9.90948 16.3442L9.90948 12.0195L5.58475 12.0195C5.00113 12.0195 4.52975 11.5481 4.52975 10.9645C4.52975 10.3809 5.00113 9.90948 5.58475 9.90948H9.90948V5.58475C9.90948 5.00113 10.3809 4.52975 10.9645 4.52975C11.5481 4.52975 12.0195 5.00113 12.0195 5.58475V9.90948H16.3442C16.9278 9.90948 17.3992 10.3809 17.3992 10.9645C17.3992 11.5481 16.9278 12.0195 16.3442 12.0195L12.0195 12.0195L12.0195 16.3442C12.0195 16.9129 11.5406 17.3917 10.9645 17.3992Z" fill="url(#paint0_linear_16_78)"/>
<defs>
<linearGradient id="paint0_linear_16_78" x1="3.48224" y1="1" x2="3.48224" y2="18.4467" gradientUnits="userSpaceOnUse">
<stop stop-color="#035DFF"/>
<stop offset="1" stop-color="#008FFF"/>
</linearGradient>
</defs>
</svg>
