<svg width="23" height="19" viewBox="0 0 23 19" fill="none" xmlns="http://www.w3.org/2000/svg">
<path fill-rule="evenodd" clip-rule="evenodd" d="M8.40469 0.749969C8.98438 0.749969 9.54219 0.979657 9.95781 1.39528L11.5 2.93747H20.25C21.4531 2.93747 22.4375 3.92184 22.4375 5.12497V16.0625C22.4375 17.2656 21.4531 18.25 20.25 18.25H2.75C1.54688 18.25 0.5625 17.2656 0.5625 16.0625L0.573437 2.93747C0.573437 1.73434 1.54688 0.749969 2.75 0.749969H8.40469ZM16.3701 6.61127L17.18 9.27782V9.28333H19.6317C20.1661 9.28333 20.3865 9.9665 19.9512 10.2805L17.9458 11.713L18.7336 14.2528C18.8934 14.7652 18.2984 15.1784 17.8742 14.8533L15.8412 13.3052L13.8082 14.8478C13.384 15.1729 12.789 14.7597 12.9488 14.2473L13.7366 11.7075L11.7312 10.275C11.2959 9.9665 11.5163 9.27782 12.0507 9.27782H14.5024L15.3178 6.61127C15.4721 6.08787 16.2103 6.08787 16.3701 6.61127Z" fill="url(#paint0_linear_16_45)"/>
<defs>
<linearGradient id="paint0_linear_16_45" x1="11.5" y1="0.749969" x2="11.5" y2="18.25" gradientUnits="userSpaceOnUse">
<stop stop-color="#035DFF"/>
<stop offset="1" stop-color="#008FFF"/>
</linearGradient>
</defs>
</svg>
