<svg width="25" height="25" viewBox="0 0 25 25" fill="none" xmlns="http://www.w3.org/2000/svg">
<g clip-path="url(#clip0_16_28)">
<path fill-rule="evenodd" clip-rule="evenodd" d="M11.472 1.0667C8.72379 1.34146 6.304 2.47813 4.39223 4.39237C2.65165 6.13515 1.55336 8.30606 1.14931 10.8024C1.00669 11.6836 1.00561 13.2947 1.14707 14.1862C1.45927 16.1539 2.17611 17.8568 3.36122 19.4465C3.7746 20.001 4.99689 21.2236 5.5533 21.639C6.79206 22.5641 8.17743 23.2367 9.61074 23.6091C10.6705 23.8844 11.3075 23.9607 12.526 23.9583C13.7139 23.9559 14.3208 23.8846 15.3285 23.629C16.7712 23.2631 18.2274 22.5625 19.419 21.6612C21.5719 20.0326 23.115 17.6503 23.6941 15.0607C23.9115 14.0887 23.9589 13.6239 23.9571 12.4819C23.9553 11.3169 23.8848 10.6967 23.647 9.75014C23.3452 8.54942 22.734 7.15683 22.0802 6.18045C20.2227 3.40626 17.4342 1.63962 14.1182 1.13613C13.567 1.05244 12.0205 1.0119 11.472 1.0667ZM7.93676 4.39766C7.95313 5.41984 7.98444 5.53537 8.28767 5.69234C8.374 5.73701 8.92902 5.876 9.52104 6.00114C12.3903 6.60773 12.2668 6.57113 12.5742 6.90549C12.7937 7.14409 12.8155 7.19773 13.045 8.06414C13.2588 8.87086 13.27 9.20239 13.0949 9.53822C13.0388 9.64595 12.3271 10.5699 11.5133 11.5913C10.6996 12.6128 10.0143 13.4934 9.99044 13.5482C9.96658 13.6031 9.75529 14.4855 9.5209 15.5092C9.28647 16.5329 9.06097 17.4472 9.01975 17.5409C8.91489 17.7793 8.68984 17.9609 8.3919 18.0475C8.01135 18.1581 7.71493 18.0817 7.44368 17.8031C7.26451 17.619 7.13211 17.3522 6.30696 15.5118C5.79329 14.3662 5.36126 13.3919 5.34686 13.3465C5.33174 13.2988 5.5908 12.4757 5.96171 11.3929C6.3985 10.118 6.60185 9.46279 6.6001 9.33662C6.59848 9.22468 6.55601 9.08439 6.49259 8.98182C6.3976 8.82816 6.26265 8.75111 5.06157 8.1651C4.33217 7.80922 3.72728 7.50998 3.71733 7.50015C3.70737 7.49033 3.79572 7.3256 3.91368 7.13409C4.62747 5.97521 5.72297 4.84275 6.85247 4.09614C7.27549 3.81654 7.83379 3.49093 7.89191 3.48995C7.9086 3.48968 7.92878 3.89812 7.93676 4.39766ZM21.6743 8.2099C22.0895 9.08488 22.361 9.98031 22.5344 11.0467C22.6343 11.661 22.6472 13.2208 22.5574 13.8274C22.3918 14.9456 22.0963 15.9233 21.6358 16.8771C21.1005 17.9857 20.5335 18.7826 19.6485 19.6704L19.0548 20.2659L18.6608 20.0136C18.4441 19.8749 18.2413 19.737 18.2101 19.7074C18.1305 19.6316 17.7359 16.0173 17.7717 15.6922C17.7864 15.5585 17.8353 15.3667 17.8803 15.2661C17.9253 15.1655 18.4167 14.4359 18.9724 13.6449C19.5281 12.8538 20.0154 12.1434 20.0554 12.0662C20.1177 11.9457 20.128 11.731 20.128 10.5593V9.19283L20.7608 8.44909C21.1088 8.04001 21.4029 7.70534 21.4142 7.70534C21.4256 7.70534 21.5427 7.93242 21.6743 8.2099ZM13.7651 21.0894C13.8483 21.1243 13.9687 21.2101 14.0326 21.28C14.2478 21.515 14.8501 22.327 14.8266 22.3505C14.78 22.3971 13.9031 22.5458 13.4006 22.5923C12.7932 22.6485 11.9223 22.6544 11.8409 22.6027C11.7635 22.5536 12.1303 21.7664 12.3077 21.601C12.4769 21.4432 13.3364 21.0258 13.492 21.0258C13.559 21.0258 13.6819 21.0544 13.7651 21.0894Z" fill="url(#paint0_linear_16_28)"/>
</g>
<defs>
<linearGradient id="paint0_linear_16_28" x1="12.4994" y1="1.04166" x2="12.4994" y2="23.9583" gradientUnits="userSpaceOnUse">
<stop stop-color="#035DFF"/>
<stop offset="1" stop-color="#008FFF"/>
</linearGradient>
<clipPath id="clip0_16_28">
<rect width="25" height="25" fill="white"/>
</clipPath>
</defs>
</svg>
