<svg width="21" height="22" viewBox="0 0 21 22" fill="none" xmlns="http://www.w3.org/2000/svg">
<path d="M20.9167 3.68749C20.9167 5.70103 19.2844 7.33332 17.2708 7.33332C15.2573 7.33332 13.625 5.70103 13.625 3.68749C13.625 1.67395 15.2573 0.0416565 17.2708 0.0416565C19.2844 0.0416565 20.9167 1.67395 20.9167 3.68749Z" fill="#FF0000"/>
<path fill-rule="evenodd" clip-rule="evenodd" d="M12.8499 1.31658C12.5102 1.24477 12.1656 1.18829 11.8169 1.14749C11.2926 1.08616 9.80066 1.06068 9.47644 1.1075C9.41388 1.11656 9.17843 1.14604 8.95322 1.17302C6.99713 1.40729 4.94123 2.29404 3.43825 3.55173C1.73745 4.97499 0.648875 6.75732 0.210686 8.83607C0.0971694 9.37463 0.0857949 9.51708 0.0835655 10.4285C0.0814271 11.3148 0.0932111 11.4834 0.186527 11.9001C0.6077 13.7808 1.71507 15.4969 3.42524 16.9192C4.6171 17.9103 6.27199 18.7458 7.87301 19.1644C8.37303 19.2951 9.32243 19.4598 9.57635 19.4598H9.74451L9.75835 20.4576C9.77122 21.3868 9.77873 21.4641 9.86736 21.5836C10.0249 21.796 10.241 21.9167 10.4637 21.9167C10.9309 21.9167 12.8661 20.9412 14.4129 19.926C17.9434 17.6089 20.155 14.8547 20.7605 12.0209C20.8998 11.3692 20.933 10.1195 20.8306 9.38686C20.7541 8.83968 20.6325 8.31198 20.4652 7.80235C19.6437 8.34391 18.6598 8.6591 17.6023 8.6591C14.7258 8.6591 12.394 6.32725 12.394 3.45077C12.394 2.6903 12.5569 1.96789 12.8499 1.31658ZM7.4163 9.89794C7.27626 9.61276 7.03444 9.37026 6.73725 9.21693C6.59389 9.14295 6.44493 9.11251 6.17785 9.10269C5.75245 9.08699 5.60749 9.12407 5.30876 9.32512C4.51887 9.85663 4.43611 10.9453 5.13687 11.5858C5.70409 12.1042 6.51513 12.1042 7.08235 11.5858C7.41785 11.2792 7.54015 10.9953 7.54165 10.5195C7.5426 10.2121 7.52309 10.1154 7.4163 9.89794ZM11.7841 9.89794C11.644 9.61276 11.4022 9.37026 11.105 9.21693C10.9617 9.14295 10.8127 9.11251 10.5456 9.10269C10.1202 9.08699 9.97528 9.12407 9.67654 9.32512C8.88665 9.85663 8.80389 10.9453 9.50465 11.5858C10.0719 12.1042 10.8829 12.1042 11.4501 11.5858C11.7856 11.2792 11.9079 10.9953 11.9094 10.5195C11.9104 10.2121 11.8909 10.1154 11.7841 9.89794ZM16.1519 9.89794C16.0118 9.61276 15.77 9.37026 15.4728 9.21693C15.3295 9.14295 15.1805 9.11251 14.9134 9.10269C14.488 9.08699 14.3431 9.12407 14.0443 9.32512C13.2544 9.85663 13.1717 10.9453 13.8724 11.5858C14.4397 12.1042 15.2507 12.1042 15.8179 11.5858C16.1534 11.2792 16.2757 10.9953 16.2772 10.5195C16.2782 10.2121 16.2587 10.1154 16.1519 9.89794Z" fill="url(#paint0_linear_0_1)"/>
<defs>
<linearGradient id="paint0_linear_0_1" x1="10.4868" y1="1.08334" x2="10.4868" y2="21.9167" gradientUnits="userSpaceOnUse">
<stop stop-color="#035DFF"/>
<stop offset="1" stop-color="#008FFF"/>
</linearGradient>
</defs>
</svg>
