<svg width="25" height="20" viewBox="0 0 25 20" fill="none" xmlns="http://www.w3.org/2000/svg">
<path fill-rule="evenodd" clip-rule="evenodd" d="M17.8068 11.2841C19.3636 12.3409 20.4545 13.7727 20.4545 15.6818V19.0909H23.8636C24.4886 19.0909 25 18.5796 25 17.9546V15.6818C25 13.2045 20.9431 11.7386 17.8068 11.2841Z" fill="url(#paint0_linear_16_40)"/>
<path d="M9.09106 9.99998C11.6015 9.99998 13.6365 7.9649 13.6365 5.45449C13.6365 2.94408 11.6015 0.908997 9.09106 0.908997C6.58065 0.908997 4.54556 2.94408 4.54556 5.45449C4.54556 7.9649 6.58065 9.99998 9.09106 9.99998Z" fill="url(#paint1_linear_16_40)"/>
<path fill-rule="evenodd" clip-rule="evenodd" d="M15.9092 9.99998C18.4205 9.99998 20.4547 7.96587 20.4547 5.45449C20.4547 2.9431 18.4205 0.908997 15.9092 0.908997C15.3751 0.908997 14.8751 1.02263 14.3978 1.18173C15.341 2.35219 15.9092 3.84084 15.9092 5.45449C15.9092 7.06814 15.341 8.55679 14.3978 9.72725C14.8751 9.88634 15.3751 9.99998 15.9092 9.99998Z" fill="url(#paint2_linear_16_40)"/>
<path fill-rule="evenodd" clip-rule="evenodd" d="M9.09098 11.1364C6.05687 11.1364 0 12.6591 0 15.6819V17.9546C0 18.5796 0.511368 19.091 1.13637 19.091H17.0456C17.6706 19.091 18.182 18.5796 18.182 17.9546V15.6819C18.182 12.6591 12.1251 11.1364 9.09098 11.1364Z" fill="url(#paint3_linear_16_40)"/>
<defs>
<linearGradient id="paint0_linear_16_40" x1="12.5" y1="0.908997" x2="12.5" y2="19.091" gradientUnits="userSpaceOnUse">
<stop stop-color="#035DFF"/>
<stop offset="1" stop-color="#008FFF"/>
</linearGradient>
<linearGradient id="paint1_linear_16_40" x1="12.5" y1="0.908997" x2="12.5" y2="19.091" gradientUnits="userSpaceOnUse">
<stop stop-color="#035DFF"/>
<stop offset="1" stop-color="#008FFF"/>
</linearGradient>
<linearGradient id="paint2_linear_16_40" x1="12.5" y1="0.908997" x2="12.5" y2="19.091" gradientUnits="userSpaceOnUse">
<stop stop-color="#035DFF"/>
<stop offset="1" stop-color="#008FFF"/>
</linearGradient>
<linearGradient id="paint3_linear_16_40" x1="12.5" y1="0.908997" x2="12.5" y2="19.091" gradientUnits="userSpaceOnUse">
<stop stop-color="#035DFF"/>
<stop offset="1" stop-color="#008FFF"/>
</linearGradient>
</defs>
</svg>
