<svg width="17" height="21" viewBox="0 0 17 21" fill="none" xmlns="http://www.w3.org/2000/svg">
<path d="M16.9233 4.25C16.9233 5.97589 15.5242 7.375 13.7983 7.375C12.0725 7.375 10.6733 5.97589 10.6733 4.25C10.6733 2.52411 12.0725 1.125 13.7983 1.125C15.5242 1.125 16.9233 2.52411 16.9233 4.25Z" fill="#FF0000"/>
<path fill-rule="evenodd" clip-rule="evenodd" d="M9.63174 2.10032V1.64584C9.63174 0.78126 8.93382 0.0833435 8.06924 0.0833435C7.20465 0.0833435 6.50674 0.78126 6.50674 1.64584V2.35418C3.51715 3.06251 1.81924 5.72918 1.81924 8.93751V14.1458L0.475487 15.4896C-0.180763 16.1458 0.27757 17.2708 1.20465 17.2708H14.9234C15.8505 17.2708 16.3192 16.1458 15.663 15.4896L14.3192 14.1458V8.93751C14.3192 8.92797 14.3192 8.91843 14.3192 8.9089C14.1482 8.92781 13.9744 8.93751 13.7984 8.93751C11.2095 8.93751 9.11085 6.83885 9.11085 4.25001C9.11085 3.47516 9.29885 2.74422 9.63174 2.10032ZM10.1526 18.3125C10.1526 19.4583 9.21507 20.3958 8.06924 20.3958C6.91299 20.3958 5.9859 19.4583 5.9859 18.3125H10.1526Z" fill="url(#paint0_linear_32_70)"/>
<defs>
<linearGradient id="paint0_linear_32_70" x1="8.06795" y1="0.0833435" x2="8.06795" y2="20.3958" gradientUnits="userSpaceOnUse">
<stop stop-color="#035DFF"/>
<stop offset="1" stop-color="#008FFF"/>
</linearGradient>
</defs>
</svg>
