<svg width="33" height="33" viewBox="0 0 33 33" fill="none" xmlns="http://www.w3.org/2000/svg">
<g clip-path="url(#clip0_1_1130)">
<path fill-rule="evenodd" clip-rule="evenodd" d="M5.375 5.5C3.16586 5.5 1.375 7.29086 1.375 9.5V24.875C1.375 27.0841 3.16586 28.875 5.375 28.875H27.8641C30.0733 28.875 31.8641 27.0841 31.8641 24.875V9.5C31.8641 7.29086 30.0733 5.5 27.8641 5.5H5.375ZM22.1533 21.3366C22.7095 21.5894 23.329 21.7158 24.0116 21.7158C24.6858 21.7158 25.301 21.5936 25.8572 21.3492C25.9469 21.3098 26.0346 21.2681 26.1203 21.2241L26.5146 21.6526H28.8153L27.4575 20.1767C27.7934 19.7913 28.0564 19.3647 28.2464 18.8968C28.474 18.3575 28.5877 17.7928 28.5877 17.2029C28.5877 16.6298 28.4782 16.0736 28.2591 15.5342C28.0484 14.9864 27.745 14.4934 27.3489 14.0552C26.9528 13.617 26.4766 13.2672 25.9204 13.006C25.3642 12.7447 24.7448 12.6141 24.0622 12.6141C23.3964 12.6141 22.7812 12.7405 22.2165 12.9933C21.6603 13.2377 21.1757 13.5706 20.7628 13.992C20.3583 14.4134 20.0422 14.898 19.8147 15.4457C19.5871 15.9851 19.4734 16.554 19.4734 17.1523C19.4734 17.7338 19.5787 18.2985 19.7894 18.8463C20.0085 19.3856 20.3161 19.8744 20.7122 20.3126C21.1167 20.7425 21.5971 21.0838 22.1533 21.3366ZM25.8214 18.3984C25.8772 18.2793 25.9229 18.1547 25.9584 18.0246C26.0426 17.738 26.0848 17.4473 26.0848 17.1523C26.0848 16.8489 26.0426 16.5582 25.9584 16.2801C25.8741 15.9935 25.7477 15.7407 25.5791 15.5216C25.4106 15.3025 25.1957 15.1297 24.9344 15.0033C24.6732 14.8685 24.3698 14.801 24.0242 14.801C23.6703 14.801 23.3627 14.8685 23.1014 15.0033C22.8486 15.1381 22.6379 15.3193 22.4693 15.5469C22.3008 15.7744 22.1744 16.0315 22.0901 16.318C22.0143 16.5961 21.9763 16.8826 21.9763 17.1776C21.9763 17.481 22.0185 17.7717 22.1028 18.0499C22.187 18.328 22.3134 18.5808 22.482 18.8083C22.6505 19.0274 22.8612 19.2044 23.1141 19.3393C23.3753 19.4657 23.6829 19.5289 24.0369 19.5289C24.2078 19.5289 24.368 19.5132 24.5173 19.4817L23.0256 17.8602H25.3263L25.8214 18.3984ZM4.42398 21.6526V12.6773H8.54505C8.98328 12.6773 9.3878 12.7658 9.75861 12.9428C10.1294 13.1197 10.4497 13.3599 10.7194 13.6633C10.989 13.9583 11.1955 14.2912 11.3388 14.662C11.4905 15.0328 11.5663 15.4078 11.5663 15.7871C11.5663 16.1326 11.5158 16.4655 11.4146 16.7857C11.3135 17.106 11.166 17.4009 10.9722 17.6706C10.7783 17.9319 10.5466 18.1594 10.2769 18.3532L12.1731 21.6526H9.46786L7.8877 18.8968H6.88904V21.6526H4.42398ZM6.88904 16.7478H8.44392C8.54505 16.7478 8.64196 16.7099 8.73467 16.634C8.82737 16.5582 8.90322 16.4486 8.96221 16.3054C9.02963 16.1621 9.06334 15.9893 9.06334 15.7871C9.06334 15.5764 9.02542 15.4036 8.94957 15.2688C8.88215 15.1255 8.79366 15.0159 8.6841 14.9401C8.58297 14.8642 8.48184 14.8263 8.38071 14.8263H6.88904V16.7478ZM12.9544 21.6526V12.6773H19.1107V14.8263H15.4194V16.318H18.4281V18.3153H15.4194V21.6526H12.9544Z" fill="url(#paint0_linear_1_1130)"/>
</g>
<defs>
<linearGradient id="paint0_linear_1_1130" x1="16.6196" y1="5.5" x2="16.6196" y2="28.875" gradientUnits="userSpaceOnUse">
<stop stop-color="#0592FF"/>
<stop offset="1" stop-color="#A9DBFF"/>
</linearGradient>
<clipPath id="clip0_1_1130">
<rect width="33" height="33" fill="white"/>
</clipPath>
</defs>
</svg>
